<?xml version="1.0" encoding="UTF-8"?>
<!DOCTYPE svg PUBLIC "-//W3C//DTD SVG 1.1//EN" "http://www.w3.org/Graphics/SVG/1.1/DTD/svg11.dtd">
<svg xmlns="http://www.w3.org/2000/svg" version="1.1" width="538px" height="210px" style="shape-rendering:geometricPrecision; text-rendering:geometricPrecision; image-rendering:optimizeQuality; fill-rule:evenodd; clip-rule:evenodd" xmlns:xlink="http://www.w3.org/1999/xlink">
<g><path style="opacity:1" fill="#fefefe" d="M -0.5,-0.5 C 178.833,-0.5 358.167,-0.5 537.5,-0.5C 537.5,69.5 537.5,139.5 537.5,209.5C 358.167,209.5 178.833,209.5 -0.5,209.5C -0.5,139.5 -0.5,69.5 -0.5,-0.5 Z"/></g>
<g><path style="opacity:1" fill="#242425" d="M 229.5,57.5 C 274.5,50.6542 291,68.9876 279,112.5C 273.66,121.254 265.827,125.421 255.5,125C 246.84,125.5 238.173,125.666 229.5,125.5C 229.5,102.833 229.5,80.1667 229.5,57.5 Z"/></g>
<g><path style="opacity:1" fill="#242425" d="M 310.5,57.5 C 316.5,57.5 322.5,57.5 328.5,57.5C 335.635,80.2395 342.969,102.906 350.5,125.5C 345.786,125.827 341.12,125.493 336.5,124.5C 334.758,120.275 333.424,115.941 332.5,111.5C 323.475,111.168 314.475,111.502 305.5,112.5C 303.758,116.725 302.424,121.059 301.5,125.5C 296.786,125.827 292.12,125.493 287.5,124.5C 294.978,102.064 302.645,79.7304 310.5,57.5 Z"/></g>
<g><path style="opacity:1" fill="#242425" d="M 375.5,57.5 C 386.167,57.5 396.833,57.5 407.5,57.5C 407.5,80.1667 407.5,102.833 407.5,125.5C 402.833,125.5 398.167,125.5 393.5,125.5C 393.5,116.833 393.5,108.167 393.5,99.5C 390.881,99.2317 388.381,99.565 386,100.5C 380.624,108.753 375.124,116.92 369.5,125C 364.467,125.829 359.467,125.662 354.5,124.5C 360.167,115.833 365.833,107.167 371.5,98.5C 362.122,94.7671 357.455,87.7671 357.5,77.5C 358.016,65.7547 364.016,59.0881 375.5,57.5 Z"/></g>
<g><path style="opacity:1" fill="#242425" d="M 422.5,57.5 C 427.167,57.5 431.833,57.5 436.5,57.5C 436.334,66.1731 436.5,74.8397 437,83.5C 444.167,75 451.333,66.5 458.5,58C 463.833,57.3333 469.167,57.3333 474.5,58C 466.153,67.6781 457.82,77.3448 449.5,87C 457.957,99.6273 466.624,112.127 475.5,124.5C 470.198,125.663 464.864,125.829 459.5,125C 453.123,115.746 446.623,106.579 440,97.5C 439,98.5 438,99.5 437,100.5C 436.5,108.827 436.334,117.16 436.5,125.5C 431.833,125.5 427.167,125.5 422.5,125.5C 422.5,102.833 422.5,80.1667 422.5,57.5 Z"/></g>
<g><path style="opacity:1" fill="#2a2a2b" d="M 143.5,59.5 C 159.079,58.6549 174.079,61.1549 188.5,67C 189.38,68.3561 189.714,69.8561 189.5,71.5C 177.955,66.948 165.955,64.2813 153.5,63.5C 147.771,63.8992 142.105,64.7325 136.5,66C 125.53,71.3226 114.197,75.6559 102.5,79C 86.5912,81.3512 71.5912,78.6846 57.5,71C 56.1587,69.1735 56.6587,68.0069 59,67.5C 72.0343,74.3998 85.8676,76.8998 100.5,75C 115.152,70.3229 129.486,65.1562 143.5,59.5 Z"/></g>
<g><path style="opacity:1" fill="#fafafa" d="M 376.5,69.5 C 382.167,69.5 387.833,69.5 393.5,69.5C 393.5,75.5 393.5,81.5 393.5,87.5C 387.824,87.6661 382.157,87.4994 376.5,87C 371.845,84.1034 370.345,79.9367 372,74.5C 373.193,72.5029 374.693,70.8362 376.5,69.5 Z"/></g>
<g><path style="opacity:1" fill="#fdfdfd" d="M 243.5,70.5 C 248.511,70.3341 253.511,70.5007 258.5,71C 266.921,74.8859 270.255,81.5525 268.5,91C 269.396,108.593 261.063,115.759 243.5,112.5C 243.5,98.5 243.5,84.5 243.5,70.5 Z"/></g>
<g><path style="opacity:1" fill="#f4f4f4" d="M 318.5,71.5 C 322.276,80.4974 325.276,89.8307 327.5,99.5C 321.833,99.5 316.167,99.5 310.5,99.5C 312.556,89.9967 315.223,80.6633 318.5,71.5 Z"/></g>
<g><path style="opacity:1" fill="#2a2a2b" d="M 142.5,98.5 C 158.457,97.3268 173.791,99.8268 188.5,106C 189.93,107.88 189.596,109.38 187.5,110.5C 169.022,101.423 150.022,100.256 130.5,107C 118.316,113.786 105.316,117.619 91.5,118.5C 79.2945,118.616 67.9612,115.616 57.5,109.5C 56.6143,108.675 56.281,107.675 56.5,106.5C 65.242,109.688 74.242,112.188 83.5,114C 99.8171,115.504 114.817,111.837 128.5,103C 133.286,101.478 137.952,99.9784 142.5,98.5 Z"/></g>
<g><path style="opacity:1" fill="#2c2c2d" d="M 141.5,137.5 C 158.186,135.46 174.02,138.127 189,145.5C 189.483,146.448 189.649,147.448 189.5,148.5C 180.654,145.832 171.654,143.665 162.5,142C 156.167,141.333 149.833,141.333 143.5,142C 129.269,147.282 114.935,152.282 100.5,157C 85.2526,158.717 70.9193,155.884 57.5,148.5C 56.1101,146.505 56.6101,145.172 59,144.5C 77.5357,155.041 96.7023,156.208 116.5,148C 124.453,143.35 132.786,139.85 141.5,137.5 Z"/></g>
<g><path style="opacity:1" fill="#373738" d="M 267.5,139.5 C 275.386,138.047 279.386,141.38 279.5,149.5C 278.967,157.249 274.967,160.416 267.5,159C 263.695,154.909 262.528,150.076 264,144.5C 264.997,142.677 266.164,141.01 267.5,139.5 Z"/></g>
<g><path style="opacity:1" fill="#2e2e2f" d="M 243.5,158.5 C 241.612,156.012 240.945,153.012 241.5,149.5C 238.167,149.5 234.833,149.5 231.5,149.5C 232.055,153.012 231.388,156.012 229.5,158.5C 229.17,152.132 229.504,145.798 230.5,139.5C 231.48,142.086 231.813,144.753 231.5,147.5C 234.5,147.5 237.5,147.5 240.5,147.5C 240.5,144.833 240.5,142.167 240.5,139.5C 241.5,139.5 242.5,139.5 243.5,139.5C 243.5,145.833 243.5,152.167 243.5,158.5 Z"/></g>
<g><path style="opacity:1" fill="#3a3a3b" d="M 298.5,139.5 C 303.118,138.924 307.285,139.924 311,142.5C 312.494,150.174 309.328,153.507 301.5,152.5C 301.5,154.833 301.5,157.167 301.5,159.5C 300.5,159.5 299.5,159.5 298.5,159.5C 298.5,152.833 298.5,146.167 298.5,139.5 Z"/></g>
<g><path style="opacity:1" fill="#777778" d="M 330.5,139.5 C 330.5,145.833 330.5,152.167 330.5,158.5C 334.167,158.5 337.833,158.5 341.5,158.5C 337.702,159.483 333.702,159.817 329.5,159.5C 329.176,152.646 329.509,145.979 330.5,139.5 Z"/></g>
<g><path style="opacity:1" fill="#2c2c2d" d="M 330.5,139.5 C 334.226,139.177 337.893,139.511 341.5,140.5C 338.572,141.484 335.572,141.817 332.5,141.5C 332.5,143.5 332.5,145.5 332.5,147.5C 343.167,148.167 343.167,148.833 332.5,149.5C 332.5,151.833 332.5,154.167 332.5,156.5C 336.012,155.945 339.012,156.612 341.5,158.5C 337.833,158.5 334.167,158.5 330.5,158.5C 330.5,152.167 330.5,145.833 330.5,139.5 Z"/></g>
<g><path style="opacity:1" fill="#616161" d="M 388.5,140.5 C 385.833,140.5 383.167,140.5 380.5,140.5C 380.5,146.5 380.5,152.5 380.5,158.5C 383.167,158.5 385.833,158.5 388.5,158.5C 385.713,159.477 382.713,159.81 379.5,159.5C 379.5,152.833 379.5,146.167 379.5,139.5C 382.713,139.19 385.713,139.523 388.5,140.5 Z"/></g>
<g><path style="opacity:1" fill="#2f2f30" d="M 388.5,140.5 C 392.807,141.664 394.474,144.498 393.5,149C 394.273,153.629 392.606,156.796 388.5,158.5C 385.833,158.5 383.167,158.5 380.5,158.5C 380.5,152.5 380.5,146.5 380.5,140.5C 383.167,140.5 385.833,140.5 388.5,140.5 Z"/></g>
<g><path style="opacity:1" fill="#272728" d="M 415.5,156.5 C 418.305,157.319 421.305,157.819 424.5,158C 420.848,158.499 417.182,158.665 413.5,158.5C 413.5,152.167 413.5,145.833 413.5,139.5C 417.226,139.177 420.893,139.511 424.5,140.5C 421.572,141.484 418.572,141.817 415.5,141.5C 415.5,143.5 415.5,145.5 415.5,147.5C 426.167,148.167 426.167,148.833 415.5,149.5C 415.5,151.833 415.5,154.167 415.5,156.5 Z"/></g>
<g><path style="opacity:1" fill="#3a3a3b" d="M 442.5,139.5 C 443.496,139.414 444.329,139.748 445,140.5C 446.083,145.417 447.749,150.084 450,154.5C 451.797,149.912 453.297,145.246 454.5,140.5C 455.5,139.167 456.5,139.167 457.5,140.5C 455.248,146.769 453.248,153.103 451.5,159.5C 450.167,159.5 448.833,159.5 447.5,159.5C 445.832,152.829 444.165,146.163 442.5,139.5 Z"/></g>
<g><path style="opacity:1" fill="#f6f6f6" d="M 268.5,141.5 C 272.182,140.725 274.682,142.059 276,145.5C 276.929,149.244 276.429,152.744 274.5,156C 271.621,156.957 269.121,156.457 267,154.5C 265.978,149.871 266.478,145.538 268.5,141.5 Z"/></g>
<g><path style="opacity:1" fill="#f3f3f3" d="M 301.5,142.5 C 308.536,141.603 310.203,144.103 306.5,150C 304.866,150.494 303.199,150.66 301.5,150.5C 301.5,147.833 301.5,145.167 301.5,142.5 Z"/></g>
<g><path style="opacity:1" fill="#f5f5f5" d="M 382.5,142.5 C 390.562,141.923 393.396,145.59 391,153.5C 388.804,156.125 385.97,157.125 382.5,156.5C 382.5,151.833 382.5,147.167 382.5,142.5 Z"/></g>
<g><path style="opacity:1" fill="#757576" d="M 243.5,158.5 C 242.791,159.404 241.791,159.737 240.5,159.5C 240.5,156.5 240.5,153.5 240.5,150.5C 237.833,150.5 235.167,150.5 232.5,150.5C 232.5,153.5 232.5,156.5 232.5,159.5C 231.209,159.737 230.209,159.404 229.5,158.5C 231.388,156.012 232.055,153.012 231.5,149.5C 234.833,149.5 238.167,149.5 241.5,149.5C 240.945,153.012 241.612,156.012 243.5,158.5 Z"/></g>
<g><path style="opacity:1" fill="#747475" d="M 415.5,156.5 C 418.833,156.5 422.167,156.5 425.5,156.5C 425.5,157.5 425.5,158.5 425.5,159.5C 421.298,159.817 417.298,159.483 413.5,158.5C 417.182,158.665 420.848,158.499 424.5,158C 421.305,157.819 418.305,157.319 415.5,156.5 Z"/></g>
</svg>
